<svg width="24" height="24" viewBox="0 0 24 24" fill="none" xmlns="http://www.w3.org/2000/svg">
<path d="M10.0018 18.9999C9.76811 19.0004 9.54168 18.919 9.36176 18.7699C9.15726 18.6004 9.02862 18.3564 9.00423 18.0919C8.97984 17.8274 9.0617 17.564 9.23176 17.3599L13.7118 11.9999L9.39176 6.62994C9.22399 6.42335 9.14549 6.1584 9.17365 5.89376C9.2018 5.62912 9.33428 5.38662 9.54176 5.21994C9.75093 5.03591 10.0274 4.94747 10.3045 4.97594C10.5817 5.00442 10.8344 5.14722 11.0018 5.36994L15.8318 11.3699C16.1351 11.7389 16.1351 12.2709 15.8318 12.6399L10.8318 18.6399C10.6283 18.8854 10.32 19.0191 10.0018 18.9999Z" fill="currentColor"/>
</svg>
