<svg width="24" height="24" viewBox="0 0 24 24" fill="none" xmlns="http://www.w3.org/2000/svg">
<path d="M5.8049 22.01C5.02491 22.01 4.36764 21.7393 3.83308 21.1978C3.29853 20.6556 3.03125 20.0091 3.03125 19.2582V8.51149C3.03125 7.74557 3.65215 7.12466 4.41808 7.12466C5.184 7.12466 5.8049 7.74557 5.8049 8.51149V19.2582H14.4389C15.1988 19.2582 15.8148 19.8742 15.8148 20.6341C15.8148 21.394 15.1988 22.01 14.4389 22.01H5.8049ZM10.3549 17.4819C9.57486 17.4819 8.91759 17.2074 8.38304 16.6582C7.84848 16.1098 7.5812 15.4598 7.5812 14.7083V4.74205C7.5812 3.99117 7.84848 3.34465 8.38304 2.80247C8.91759 2.26098 9.57486 1.99023 10.3549 1.99023H18.1974C18.9774 1.99023 19.6347 2.26098 20.1692 2.80247C20.7038 3.34465 20.9711 3.99117 20.9711 4.74205V14.7083C20.9711 15.4598 20.7038 16.1098 20.1692 16.6582C19.6347 17.2074 18.9774 17.4819 18.1974 17.4819H10.3549Z" fill="currentColor"/>
</svg>
