<svg width="21" height="20" viewBox="0 0 21 20" fill="none" xmlns="http://www.w3.org/2000/svg">
<path opacity="0.32" fill-rule="evenodd" clip-rule="evenodd" d="M15.2965 1.91716C14.9601 1.76126 14.7645 1.74082 14.7195 1.73813C13.6385 1.69547 12.2572 1.6665 10.4993 1.6665C6.93714 1.6665 4.92147 1.78547 3.81662 1.89626C3.03365 1.97477 2.47429 2.53414 2.39577 3.3171C2.28498 4.42196 2.16602 6.43763 2.16602 9.99984C2.16602 13.8705 2.30647 16.3365 2.42428 17.7243C2.47874 18.3657 3.2047 18.6482 3.69922 18.236L5.08268 17.0832L6.22193 18.2224C6.52218 18.5227 7.00018 18.5492 7.33177 18.2839L8.83268 17.0832L9.9101 18.1606C10.2355 18.486 10.7632 18.486 11.0886 18.1606L12.166 17.0832L13.6669 18.2839C13.9985 18.5492 14.4765 18.5227 14.7768 18.2224L15.916 17.0832L17.2995 18.236C17.794 18.6482 18.52 18.3657 18.5744 17.7243C18.6922 16.3365 18.8327 13.8705 18.8327 9.99984C18.8327 8.22724 18.8032 6.83757 18.76 5.75252C18.3954 5.79735 17.8802 5.83354 17.1668 5.83354C16.6422 5.83354 16.2249 5.81396 15.8957 5.78579C15.179 5.72442 14.7134 5.17646 14.6858 4.45767C14.6745 4.16021 14.6668 3.79046 14.6668 3.33355C14.6668 2.59482 14.6867 2.08394 14.7103 1.73812C14.7103 1.73812 14.9106 1.73846 15.2965 1.91716ZM10.2159 12.7225C10.6694 12.7225 10.997 12.6459 11.1986 12.4925C11.4086 12.3392 11.5136 12.1513 11.5136 11.929C11.5136 11.7296 11.4338 11.5686 11.2742 11.4459C11.1146 11.3232 10.8752 11.2158 10.5561 11.1238L9.8631 10.9168C9.51872 10.8171 9.20793 10.7098 8.93077 10.5948C8.6536 10.4798 8.41843 10.3418 8.22522 10.1807C8.03206 10.0197 7.88085 9.828 7.77168 9.60567C7.66247 9.3833 7.60789 9.11875 7.60789 8.81204C7.60789 8.29063 7.78427 7.85742 8.13706 7.51238C8.48981 7.16734 8.99377 6.93729 9.64893 6.82229V6.49517C9.64893 6.155 9.88456 5.851 10.2244 5.83604C10.2681 5.83413 10.3115 5.83317 10.3545 5.83317C10.6652 5.83317 10.8878 5.883 11.0222 5.98267C11.165 6.08238 11.2364 6.26254 11.2364 6.52325V6.77629C11.7739 6.82996 12.2107 6.94879 12.5467 7.13284C12.8826 7.30917 13.0506 7.54304 13.0506 7.83442C13.0506 7.96421 13.0163 8.08438 12.9569 8.19342C12.7989 8.48342 12.4044 8.46204 12.0915 8.35642C12.0021 8.32621 11.906 8.29792 11.8033 8.27146C11.4842 8.17946 11.1356 8.13346 10.7576 8.13346C10.3377 8.13346 10.0227 8.19863 9.81272 8.329C9.6111 8.45167 9.51031 8.61267 9.51031 8.81204C9.51031 8.97309 9.57752 9.10342 9.71193 9.20309C9.85468 9.30279 10.0689 9.39479 10.3545 9.47913L11.06 9.67467C11.8159 9.88934 12.3955 10.173 12.7987 10.5258C13.2102 10.8785 13.416 11.3539 13.416 11.952C13.416 12.481 13.2312 12.9296 12.8616 13.2976C12.4921 13.658 11.9503 13.8995 11.2364 14.0222V14.3378C11.2364 14.678 11.0007 14.982 10.6609 14.997C10.6173 14.9989 10.5738 14.9998 10.5308 14.9998C10.2201 14.9998 9.99331 14.95 9.85052 14.8503C9.7161 14.7506 9.64893 14.5705 9.64893 14.3098V14.0797C9.03577 14.0184 8.53602 13.8842 8.14964 13.6772C7.77168 13.4625 7.58268 13.1941 7.58268 12.872C7.58268 12.684 7.65489 12.5206 7.77072 12.3833C7.9781 12.1374 8.34735 12.1984 8.63306 12.3461C8.75493 12.4091 8.88777 12.4694 9.03156 12.527C9.37593 12.6574 9.77072 12.7225 10.2159 12.7225Z" fill="#637381"/>
<path d="M18.7613 5.75258C18.3967 5.79746 17.8812 5.83371 17.1673 5.83371C16.6427 5.83371 16.2254 5.81412 15.8962 5.78596C15.1795 5.72458 14.7139 5.17662 14.6863 4.45783C14.6749 4.16038 14.6673 3.79063 14.6673 3.33371C14.6673 2.59498 14.6872 2.0841 14.7108 1.73828C14.7108 1.73828 15.5734 1.73977 17.1673 3.33371C18.7613 4.92766 18.7613 5.75258 18.7613 5.75258Z" fill="#919EAB"/>
<path d="M10.2172 12.7227C10.6707 12.7227 10.9983 12.646 11.1999 12.4927C11.4099 12.3393 11.5149 12.1515 11.5149 11.9291C11.5149 11.7297 11.4351 11.5687 11.2755 11.446C11.1159 11.3234 10.8765 11.216 10.5574 11.124L9.8644 10.917C9.52003 10.8173 9.20923 10.71 8.93207 10.595C8.6549 10.4799 8.41973 10.3419 8.22653 10.1809C8.03336 10.0199 7.88215 9.82817 7.77298 9.60583C7.66378 9.38346 7.60919 9.11891 7.60919 8.81221C7.60919 8.29079 7.78557 7.85758 8.13836 7.51254C8.49111 7.1675 8.99507 6.93746 9.65023 6.82246V6.49533C9.65023 6.15516 9.88586 5.85116 10.2257 5.83621C10.2694 5.83429 10.3128 5.83333 10.3558 5.83333C10.6665 5.83333 10.8891 5.88316 11.0235 5.98283C11.1663 6.08254 11.2377 6.26271 11.2377 6.52341V6.77646C11.7752 6.83012 12.212 6.94896 12.548 7.133C12.8839 7.30933 13.0519 7.54321 13.0519 7.83458C13.0519 7.96437 13.0176 8.08454 12.9582 8.19358C12.8002 8.48358 12.4057 8.46221 12.0928 8.35658C12.0034 8.32637 11.9073 8.29808 11.8047 8.27162C11.4855 8.17962 11.1369 8.13362 10.7589 8.13362C10.339 8.13362 10.024 8.19879 9.81403 8.32916C9.6124 8.45183 9.51161 8.61283 9.51161 8.81221C9.51161 8.97325 9.57882 9.10358 9.71323 9.20325C9.85598 9.30296 10.0702 9.39496 10.3558 9.47929L11.0613 9.67483C11.8172 9.8895 12.3968 10.1732 12.8 10.5259C13.2115 10.8786 13.4173 11.354 13.4173 11.9521C13.4173 12.4812 13.2325 12.9297 12.8629 13.2978C12.4934 13.6582 11.9517 13.8997 11.2377 14.0224V14.338C11.2377 14.6782 11.002 14.9822 10.6622 14.9971C10.6186 14.999 10.5752 15 10.5322 15C10.2214 15 9.99461 14.9502 9.85182 14.8505C9.7174 14.7508 9.65023 14.5706 9.65023 14.3099V14.0799C9.03707 14.0185 8.53732 13.8844 8.15094 13.6773C7.77298 13.4626 7.58398 13.1942 7.58398 12.8722C7.58398 12.6841 7.65619 12.5208 7.77203 12.3834C7.9794 12.1376 8.34865 12.1985 8.63436 12.3462C8.75623 12.4092 8.88907 12.4695 9.03286 12.5272C9.37723 12.6575 9.77203 12.7227 10.2172 12.7227Z" fill="#919EAB"/>
</svg>
