<svg width="18" height="18" viewBox="0 0 18 18" fill="none" xmlns="http://www.w3.org/2000/svg">
<path d="M12.464 4.65758C12.3072 4.53343 12.1073 4.47706 11.9087 4.501C11.7101 4.52494 11.5293 4.62721 11.4065 4.78508L6.15653 11.5351L3.58403 8.40008C3.41974 8.18139 3.14941 8.06948 2.87861 8.10806C2.6078 8.14664 2.37948 8.32959 2.2828 8.58546C2.18612 8.84134 2.23641 9.12957 2.41403 9.33758L5.54153 13.2226C5.6845 13.3988 5.89959 13.5009 6.12653 13.5001C6.36782 13.5109 6.59952 13.4048 6.74903 13.2151L12.6215 5.71508C12.7425 5.55453 12.7939 5.35215 12.7643 5.15334C12.7347 4.95453 12.6265 4.77592 12.464 4.65758Z" fill="currentColor"/>
<path d="M16.214 4.65758C16.0572 4.53343 15.8573 4.47706 15.6587 4.501C15.4601 4.52494 15.2793 4.62721 15.1565 4.78508L9.90653 11.5351L9.44903 10.9726L8.50403 12.1876L9.32903 13.2151C9.472 13.3913 9.68709 13.4934 9.91403 13.4926C10.1422 13.4915 10.3575 13.3866 10.499 13.2076L16.3715 5.70758C16.4901 5.54753 16.5401 5.34689 16.5106 5.14992C16.481 4.95294 16.3743 4.77581 16.214 4.65758Z" fill="currentColor"/>
<path d="M6.53153 9.79508L7.49903 8.58008L7.34903 8.40008C7.22938 8.23432 7.04725 8.12458 6.84478 8.09626C6.64232 8.06795 6.43707 8.12351 6.27653 8.25008C6.12092 8.37509 6.02156 8.55697 6.00044 8.75545C5.97933 8.95393 6.0382 9.15264 6.16403 9.30758L6.53153 9.79508Z" fill="currentColor"/>
</svg>
