<svg width="25" height="24" viewBox="0 0 25 24" fill="none" xmlns="http://www.w3.org/2000/svg">
<path opacity="0.48" d="M20.3423 2C21.3548 2 22.1756 2.82081 22.1756 3.83333C22.1756 4.84586 21.3548 5.66667 20.3423 5.66667C20.0264 5.66667 19.7292 5.5868 19.4698 5.44615L16.4449 8.92577C16.5795 9.18091 16.6557 9.47164 16.6557 9.78018C16.6557 10.7927 15.8349 11.6135 14.8224 11.6135C13.8403 11.6135 13.0386 10.8413 12.9913 9.87094L10.7879 9.11245C10.4516 9.52023 9.94252 9.78018 9.37272 9.78018C9.04559 9.78018 8.73848 9.6945 8.47259 9.54437L5.59698 11.9571C5.65115 12.1302 5.68034 12.3144 5.68034 12.5053C5.68034 13.5178 4.85953 14.3386 3.84701 14.3386C2.83448 14.3386 2.01367 13.5178 2.01367 12.5053C2.01367 11.4928 2.83448 10.672 3.84701 10.672C4.17791 10.672 4.48834 10.7596 4.75633 10.913L7.62594 8.50515C7.56973 8.32911 7.53938 8.14152 7.53938 7.94685C7.53938 6.93433 8.36019 6.11351 9.37272 6.11351C10.3485 6.11351 11.1462 6.87583 11.2028 7.83739L13.4188 8.60065C13.7551 8.20089 14.2591 7.94685 14.8224 7.94685C15.0354 7.94685 15.24 7.98319 15.4302 8.05001L18.5996 4.40419C18.5407 4.22454 18.5089 4.03265 18.5089 3.83333C18.5089 2.82081 19.3298 2 20.3423 2Z" fill="#637381"/>
<path d="M21.2617 10.6085C21.768 10.6085 22.1784 11.0189 22.1784 11.5252V22.2793C22.1784 22.5554 21.9545 22.7793 21.6784 22.7793H19.0117C18.7356 22.7793 18.5117 22.5554 18.5117 22.2793V11.5252C18.5117 11.0189 18.9221 10.6085 19.4284 10.6085H21.2617ZM15.7617 17.034C16.268 17.034 16.6784 17.4444 16.6784 17.9507V22.2793C16.6784 22.5554 16.4545 22.7793 16.1784 22.7793H13.5117C13.2356 22.7793 13.0117 22.5554 13.0117 22.2793V17.9507C13.0117 17.4444 13.4221 17.034 13.9284 17.034H15.7617ZM10.2617 15.1935C10.768 15.1935 11.1784 15.6039 11.1784 16.1101V22.2793C11.1784 22.5554 10.9545 22.7793 10.6784 22.7793H8.01172C7.73558 22.7793 7.51172 22.5554 7.51172 22.2793V16.1101C7.51172 15.6039 7.92212 15.1935 8.42839 15.1935H10.2617ZM4.76172 19.907C5.26798 19.907 5.67839 20.3174 5.67839 20.8237V22.2793C5.67839 22.5554 5.45453 22.7793 5.17839 22.7793H2.51172C2.23558 22.7793 2.01172 22.5554 2.01172 22.2793V20.8237C2.01172 20.3174 2.42212 19.907 2.92839 19.907H4.76172Z" fill="#637381"/>
</svg>
