<svg width="25" height="24" viewBox="0 0 25 24" fill="none" xmlns="http://www.w3.org/2000/svg">
<path d="M8.27794 6.14278V8.88743C8.27794 9.22732 8.55308 9.50245 8.89297 9.50245C9.2016 9.50245 9.45738 9.27507 9.50133 8.97836L9.508 8.88743V6.14278H15.1661V8.88743C15.1661 9.22732 15.4417 9.50245 15.7812 9.50245C16.0902 9.50245 16.3456 9.27507 16.3895 8.97836L16.3962 8.88743V6.14278H18.2486C18.9643 6.14278 19.5752 6.66675 19.6967 7.3596L19.7144 7.50032L20.6521 19.3173C20.7251 20.2656 20.3967 21.2078 19.7518 21.904C19.1564 22.5467 18.3316 22.9367 17.4616 22.993L17.2433 23H7.43089C6.48171 23 5.56738 22.6002 4.92241 21.9041C4.32709 21.2614 4.00147 20.4092 4.01196 19.5372L4.02163 19.3189L4.95974 7.49868C5.0143 6.78643 5.58386 6.21794 6.28388 6.14966L6.42551 6.14278H8.27794ZM12.3761 10.1137C12.1494 10.1104 11.9625 10.2914 11.9592 10.5187V11.2743C10.4679 11.3803 9.45384 12.3016 9.45384 13.5278C9.45384 15.0323 10.733 15.4499 11.9592 15.7813V18.4325C11.3123 18.3457 10.7025 18.0772 10.2028 17.657C10.1087 17.5821 9.99201 17.5404 9.87139 17.5377C9.56584 17.5589 9.33055 17.8148 9.33446 18.121C9.33385 18.2549 9.38621 18.3835 9.48032 18.4789C10.165 19.0953 11.0452 19.4499 11.9658 19.4797L11.9665 20.2227C11.9771 20.4494 12.1699 20.6244 12.3966 20.6131C12.62 20.6131 12.8009 20.4322 12.8009 20.2088V19.4665C14.6104 19.3472 15.3394 18.2469 15.3394 17.0804C15.3394 15.5162 14.0272 15.039 12.801 14.7076V12.3745C13.3001 12.4587 13.7706 12.6635 14.173 12.971C14.2532 13.026 14.3473 13.0559 14.4447 13.0572C14.7569 13.0572 15.0114 12.806 15.0147 12.4938C15.0154 12.36 14.963 12.2314 14.8689 12.1359C14.2876 11.6382 13.5586 11.3445 12.7944 11.3008V10.5187C12.7944 10.2953 12.6134 10.1144 12.39 10.1144C12.3854 10.1137 12.3807 10.1137 12.3761 10.1137ZM12.801 16.0332C13.5499 16.2453 14.1332 16.5303 14.1266 17.2262C14.1266 17.7299 13.7819 18.3265 12.801 18.4457V16.0332ZM11.9659 12.3281V14.4955C11.2434 14.2834 10.68 14.0647 10.68 13.4483C10.68 12.8319 11.1904 12.3878 11.9659 12.3281ZM12.3371 2C14.5754 2 16.3962 3.82126 16.3962 6.05952V6.14274H15.1662V6.05952C15.1662 4.49941 13.8972 3.23002 12.3371 3.23002C10.777 3.23002 9.50804 4.49941 9.50804 6.05952V6.14274H8.27798V6.05952C8.27798 3.82126 10.0988 2 12.3371 2Z" fill="#637381"/>
</svg>
