<svg width="165" height="40" viewBox="0 0 165 40" fill="none" xmlns="http://www.w3.org/2000/svg">
<path fill-rule="evenodd" clip-rule="evenodd" d="M21.2091 4.58103C20.5459 4.30632 19.8008 4.30632 19.1376 4.58103L10.0029 8.36471C9.33969 8.63941 8.81278 9.16632 8.53807 9.82952L4.75437 18.9641C4.47966 19.6273 4.47966 20.3725 4.75437 21.0357L8.53807 30.1703C8.81278 30.8335 9.33969 31.3604 10.0029 31.6351L19.1376 35.4188C19.8008 35.6935 20.5459 35.6935 21.2091 35.4188L30.3438 31.6351C31.007 31.3604 31.5339 30.8335 31.8086 30.1703L35.5923 21.0357C35.867 20.3725 35.867 19.6273 35.5923 18.9641L31.8086 9.82952C31.5339 9.16632 31.007 8.63941 30.3438 8.36471L21.2091 4.58103ZM20.8822 9.29894C20.7916 8.44994 19.5562 8.44994 19.4657 9.29895L18.7166 16.3245C18.6654 16.8048 18.1611 17.0959 17.7196 16.9001L11.2607 14.036C10.4802 13.6899 9.86245 14.7599 10.5524 15.2628L16.2623 19.4243C16.6526 19.7088 16.6526 20.291 16.2623 20.5755L10.5524 24.737C9.86245 25.2399 10.4802 26.3098 11.2607 25.9637L17.7196 23.0996C18.1611 22.9038 18.6654 23.195 18.7166 23.6752L19.4657 30.7008C19.5562 31.5498 20.7916 31.5498 20.8822 30.7008L21.6312 23.6752C21.6824 23.195 22.1867 22.9038 22.6282 23.0996L29.0871 25.9637C29.8676 26.3098 30.4854 25.2399 29.7954 24.737L24.0856 20.5755C23.6952 20.291 23.6952 19.7088 24.0856 19.4243L29.7954 15.2628C30.4854 14.7599 29.8676 13.6899 29.0871 14.036L22.6282 16.9001C22.1867 17.0959 21.6824 16.8048 21.6312 16.3245L20.8822 9.29894Z" fill="#7FD660"/>
<path d="M49.879 25.8349H57.8305C58.7727 25.8349 59.5795 25.7082 60.2509 25.4548C60.9223 25.2014 61.434 24.8348 61.786 24.355C62.1434 23.8698 62.3221 23.2821 62.3221 22.592V22.5759C62.3221 22.0529 62.2029 21.5919 61.9647 21.193C61.7264 20.7886 61.3826 20.4625 60.9332 20.2145C60.4838 19.9611 59.9342 19.7913 59.2844 19.705V19.6646C59.7988 19.5675 60.2401 19.4004 60.6083 19.1632C60.9765 18.926 61.2581 18.6294 61.453 18.2736C61.6479 17.9124 61.7454 17.5027 61.7454 17.0444V17.0282C61.7454 16.4352 61.5857 15.9257 61.2662 15.4998C60.9521 15.0685 60.4973 14.7396 59.9017 14.5132C59.3115 14.2814 58.6021 14.1655 57.7737 14.1655H49.879V16.4217H56.8071C57.3053 16.4217 57.6952 16.5268 57.9767 16.7371C58.2583 16.9474 58.3991 17.2574 58.3991 17.6671V17.6833C58.3991 18.0876 58.2366 18.4003 57.9118 18.6214C57.5869 18.837 57.132 18.9448 56.5472 18.9448H49.879V20.9099H56.9533C57.3703 20.9099 57.7222 20.9585 58.0092 21.0555C58.3016 21.1526 58.5236 21.3008 58.6752 21.5003C58.8268 21.6944 58.9026 21.9397 58.9026 22.2362V22.2524C58.9026 22.6837 58.7429 23.0125 58.4234 23.239C58.1094 23.4654 57.66 23.5786 57.0752 23.5786H49.879V25.8349ZM48.1733 25.8349H51.5034V14.1655H48.1733V25.8349Z" fill="#7FD660"/>
<path d="M63.7191 25.8349H67.0979V21.9127H71.4513C71.4784 21.9127 71.5055 21.9127 71.5325 21.9127C71.5596 21.9127 71.5867 21.9127 71.6138 21.9127L74.2941 25.8349H78.1196L74.9195 21.3709C75.8075 21.1121 76.4789 20.6916 76.9337 20.1093C77.394 19.5217 77.6241 18.7912 77.6241 17.9178V17.9016C77.6241 17.1199 77.4346 16.4514 77.0556 15.8961C76.682 15.3408 76.1242 14.9148 75.3824 14.6183C74.6406 14.3164 73.7282 14.1655 72.6453 14.1655H63.7191V25.8349ZM67.0979 19.7373V16.4945H72.3285C72.935 16.4945 73.406 16.6374 73.7417 16.9231C74.0829 17.2034 74.2534 17.5943 74.2534 18.0957V18.1119C74.2534 18.6294 74.0883 19.0311 73.758 19.3168C73.4277 19.5972 72.962 19.7373 72.361 19.7373H67.0979Z" fill="#7FD660"/>
<path d="M79.3785 25.8349H82.7573V14.1655H79.3785V25.8349Z" fill="#7FD660"/>
<path d="M84.7066 25.8349H87.9636V18.1523H89.3687L86.128 16.5026L96.3456 25.8349H99.2939V14.1655H96.0451V21.7914H94.6318L97.8807 23.425L87.6549 14.1655H84.7066V25.8349Z" fill="#7FD660"/>
<path d="M109.081 26.0775C110.278 26.0775 111.361 25.94 112.33 25.6651C113.305 25.3847 114.138 24.9858 114.832 24.4682C115.53 23.9506 116.066 23.336 116.44 22.6244C116.813 21.9127 117 21.1283 117 20.2711V19.4705H109.187V21.3709H113.613V21.3952C113.462 21.8696 113.188 22.2686 112.793 22.592C112.403 22.9101 111.905 23.1527 111.298 23.3199C110.697 23.487 109.999 23.5705 109.203 23.5705C108.461 23.5705 107.79 23.4897 107.189 23.3279C106.588 23.1662 106.07 22.9317 105.637 22.6244C105.21 22.3117 104.879 21.9343 104.646 21.4922C104.419 21.0447 104.305 20.5353 104.305 19.9638V19.9476C104.305 19.1928 104.514 18.5567 104.931 18.0391C105.348 17.5161 105.924 17.1199 106.661 16.8503C107.397 16.5808 108.244 16.446 109.203 16.446C110.243 16.446 111.125 16.5942 111.851 16.8908C112.582 17.1873 113.112 17.5862 113.443 18.0876L113.483 18.1442H116.927L116.895 18.0553C116.651 17.2412 116.172 16.5241 115.457 15.9041C114.742 15.2841 113.843 14.7989 112.76 14.4485C111.677 14.0981 110.454 13.9229 109.089 13.9229C107.416 13.9229 105.962 14.1682 104.728 14.6588C103.498 15.1494 102.545 15.8475 101.869 16.7533C101.197 17.659 100.861 18.7238 100.861 19.9476V19.9638C100.861 20.9126 101.056 21.7645 101.446 22.5192C101.836 23.274 102.391 23.9156 103.111 24.4439C103.831 24.9723 104.695 25.3766 105.702 25.657C106.715 25.9373 107.841 26.0775 109.081 26.0775Z" fill="#7FD660"/>
<path d="M126.503 26.0775C128.171 26.0775 129.622 25.8295 130.856 25.3335C132.096 24.8375 133.058 24.1339 133.74 23.2228C134.422 22.3117 134.763 21.2388 134.763 20.0042V19.988C134.763 18.7534 134.422 17.6833 133.74 16.7775C133.058 15.8664 132.096 15.1628 130.856 14.6668C129.622 14.1709 128.171 13.9229 126.503 13.9229C124.835 13.9229 123.381 14.1709 122.141 14.6668C120.907 15.1628 119.948 15.8664 119.266 16.7775C118.584 17.6833 118.243 18.7534 118.243 19.988V20.0042C118.243 21.2388 118.584 22.3117 119.266 23.2228C119.948 24.1339 120.907 24.8375 122.141 25.3335C123.381 25.8295 124.835 26.0775 126.503 26.0775ZM126.503 23.5382C125.523 23.5382 124.673 23.3953 123.953 23.1096C123.232 22.8239 122.675 22.4168 122.279 21.8885C121.884 21.3547 121.687 20.7266 121.687 20.0042V19.988C121.687 19.2656 121.884 18.6402 122.279 18.1119C122.675 17.5835 123.232 17.1765 123.953 16.8908C124.673 16.5996 125.523 16.4541 126.503 16.4541C127.478 16.4541 128.325 16.5996 129.045 16.8908C129.771 17.1765 130.331 17.5835 130.726 18.1119C131.122 18.6402 131.319 19.2656 131.319 19.988V20.0042C131.319 20.7266 131.122 21.3547 130.726 21.8885C130.331 22.4168 129.771 22.8239 129.045 23.1096C128.325 23.3953 127.478 23.5382 126.503 23.5382Z" fill="#7FD660"/>
<path d="M136.331 25.8349H147.71V23.336H139.71V14.1655H136.331V25.8349Z" fill="#7FD660"/>
<path d="M149.164 25.8349H156.75C158.352 25.8349 159.703 25.6111 160.803 25.1637C161.907 24.7108 162.744 24.0477 163.312 23.1743C163.886 22.2955 164.173 21.2226 164.173 19.9557V19.9395C164.173 18.7049 163.889 17.659 163.321 16.8018C162.752 15.9392 161.915 15.2841 160.811 14.8367C159.706 14.3892 158.352 14.1655 156.75 14.1655H149.164V25.8349ZM152.542 23.3603V16.6401H156.62C157.535 16.6401 158.298 16.7694 158.91 17.0282C159.522 17.2816 159.977 17.659 160.275 18.1604C160.578 18.6618 160.73 19.2764 160.73 20.0042V20.0204C160.73 20.7698 160.57 21.3925 160.25 21.8885C159.931 22.3845 159.465 22.7538 158.853 22.9964C158.241 23.239 157.497 23.3603 156.62 23.3603H152.542Z" fill="#7FD660"/>
</svg>
