<svg width="512" height="512" viewBox="0 0 512 512" fill="none" xmlns="http://www.w3.org/2000/svg">
<path fill-rule="evenodd" clip-rule="evenodd" d="M269.258 58.6384C260.769 55.1221 251.231 55.1222 242.742 58.6384L125.818 107.069C117.329 110.586 110.585 117.33 107.069 125.819L58.6373 242.742C55.1211 251.231 55.1211 260.769 58.6373 269.258L107.069 386.181C110.585 394.67 117.329 401.414 125.818 404.93L242.742 453.362C251.231 456.878 260.769 456.878 269.258 453.362L386.182 404.93C394.671 401.414 401.415 394.67 404.932 386.181L453.363 269.258C456.879 260.769 456.879 251.231 453.363 242.742L404.931 125.819C401.415 117.33 394.671 110.586 386.182 107.069L269.258 58.6384ZM265.073 119.028C263.914 108.16 248.1 108.16 246.942 119.028L237.354 208.955C236.698 215.102 230.244 218.829 224.592 216.323L141.918 179.663C131.928 175.232 124.021 188.928 132.853 195.365L205.938 248.632C210.935 252.273 210.935 259.726 205.938 263.367L132.853 316.635C124.021 323.072 131.928 336.767 141.918 332.337L224.592 295.677C230.244 293.17 236.698 296.897 237.354 303.044L246.942 392.972C248.1 403.839 263.914 403.839 265.073 392.972L274.661 303.044C275.317 296.897 281.771 293.17 287.423 295.677L370.096 332.337C380.087 336.767 387.994 323.072 379.162 316.635L306.076 263.367C301.08 259.726 301.08 252.273 306.076 248.632L379.162 195.365C387.994 188.928 380.087 175.232 370.096 179.663L287.423 216.323C281.771 218.829 275.317 215.102 274.661 208.955L265.073 119.028Z" fill="#7FD660"/>
</svg>
