<svg width="240" height="241" viewBox="0 0 240 241" fill="none" xmlns="http://www.w3.org/2000/svg">
<path fill-rule="evenodd" clip-rule="evenodd" d="M28.2429 25.6036C29.2289 25.2916 30.3046 25.4708 31.1361 26.0856L40.1826 32.7743L93.5417 52.6905H147.215L200.596 32.7663L209.62 26.0866C210.452 25.471 211.529 25.2914 212.515 25.6036C213.502 25.9159 214.279 26.6821 214.605 27.6642L224.593 57.7507C224.772 58.2882 224.806 58.8632 224.692 59.418L218.073 91.6105C218.057 91.6888 218.038 91.7664 218.016 91.8432L209.17 122.953C208.399 125.664 207.991 128.014 207.991 128.014L219.965 164.973L207.088 208.779L162.019 196.383L153.354 203.545L135.543 215.82H105.156L87.4047 203.605L80.5299 198.106L78.6185 196.383L33.6697 208.779L20.8528 164.973L32.7976 127.944C32.7976 127.944 32.3364 125.623 31.5844 122.941L22.8593 91.8321C22.8397 91.7622 22.8225 91.6917 22.8076 91.6206L16.0682 59.3679C15.9516 58.8095 15.985 58.23 16.165 57.6886L26.1538 27.6624C26.4802 26.6811 27.257 25.9156 28.2429 25.6036ZM109.368 180.738H131.391L131.391 180.737L131.393 180.733L131.392 180.738L135.183 183.386L137.139 199.152H103.68L105.637 183.386L109.368 180.738ZM22.5664 58.9001L33.1969 34.8991L100.434 85.352L74.6537 107.126L36.9216 118.063L29.1053 90.1934L22.5664 58.9001ZM166.102 107.066L140.33 85.4049L208.232 36.3724L218.193 58.9645L211.773 90.1929L203.849 118.062L166.102 107.066ZM103.761 153.612L82.4092 147.414V146.947L97.5742 140.001L103.761 153.612ZM158.598 146.946L158.593 147.36L136.66 153.711L143.245 139.941L158.598 146.946Z" fill="currentColor"/>
</svg>
