<svg width="36" height="24" viewBox="0 0 36 24" fill="none" xmlns="http://www.w3.org/2000/svg">
<rect width="36" height="24" rx="4" fill="white"/>
<path d="M23.0082 9.81906L24.6912 8.57666H19.0586V16.0424H24.6912V14.8H20.6658V12.8876H24.0997V11.6452H20.6658V9.81906H23.0082Z" fill="#21A038"/>
<path d="M15.2708 11.4854H13.3153V9.81893H16.4362L18.1182 8.57275H11.709V16.0385H15.0639C16.9449 16.0385 18.0244 15.1843 18.0244 13.6945C18.0244 12.2693 17.0466 11.4854 15.2708 11.4854ZM14.9916 14.7957H13.3153V12.727H14.9916C16.0089 12.727 16.4859 13.0737 16.4859 13.7614C16.4859 14.449 15.9784 14.7957 14.9916 14.7957Z" fill="#21A038"/>
<path d="M28.8336 8.57568H25.7676V16.0414H27.3746V13.9265H28.8336C30.7898 13.9265 31.9999 12.8951 31.9999 11.2471C31.9999 9.59915 30.7898 8.57568 28.8336 8.57568ZM28.7997 12.6831H27.3746V9.81903H28.7997C29.8286 9.81903 30.3965 10.3279 30.3965 11.2516C30.3965 12.1754 29.8286 12.6831 28.7997 12.6831Z" fill="#21A038"/>
<path d="M9.29613 14.2797C8.88099 14.505 8.41587 14.6216 7.94383 14.6188C6.53095 14.6188 5.50598 13.6082 5.50598 12.2164C5.50598 10.8247 6.53095 9.8118 7.94383 9.8118C8.45334 9.80313 8.95228 9.95793 9.36775 10.2536L10.4919 9.4241L10.4159 9.36997C9.76012 8.79229 8.88394 8.48633 7.88103 8.48633C6.79323 8.48633 5.80686 8.85304 5.10261 9.52019C4.74651 9.8637 4.46491 10.2771 4.27527 10.7345C4.08566 11.1919 3.9921 11.6836 4.00052 12.1789C3.99298 12.6792 4.0861 13.1758 4.27432 13.6393C4.46254 14.1027 4.74199 14.5234 5.09601 14.8762C5.80355 15.5699 6.78772 15.952 7.8678 15.952C8.99635 15.952 9.98275 15.5577 10.6506 14.8398L9.6444 14.0887L9.29613 14.2797Z" fill="#21A038"/>
</svg>
