<svg width="21" height="20" viewBox="0 0 21 20" fill="none" xmlns="http://www.w3.org/2000/svg">
<path d="M14.8809 5.29182C13.5226 3.93349 11.5976 3.15016 9.48092 3.36682C6.42258 3.67516 3.90592 6.15849 3.56425 9.21682C3.10592 13.2585 6.23092 16.6668 10.1726 16.6668C12.8309 16.6668 15.1143 15.1085 16.1809 12.8668C16.4476 12.3085 16.0476 11.6668 15.4309 11.6668C15.1226 11.6668 14.8309 11.8335 14.6976 12.1085C13.7559 14.1335 11.4976 15.4168 9.03092 14.8668C7.18092 14.4585 5.68925 12.9502 5.29758 11.1002C4.59758 7.86682 7.05592 5.00016 10.1726 5.00016C11.5559 5.00016 12.7893 5.57516 13.6893 6.48349L12.4309 7.74182C11.9059 8.26682 12.2726 9.16682 13.0143 9.16682H16.0059C16.4643 9.16682 16.8393 8.79182 16.8393 8.33349V5.34182C16.8393 4.60016 15.9393 4.22516 15.4143 4.75016L14.8809 5.29182Z" fill="currentColor"/>
</svg>
